<svg width="135" height="17" viewBox="0 0 135 17" fill="none" xmlns="http://www.w3.org/2000/svg">
<path d="M18.7979 16H15.5859L14.5654 4.30176L10.6338 16H8.5498L4.61816 4.30176L3.58691 16H0.364258L1.66406 0.477539H6.26172L9.57031 10.2207L12.9219 0.477539H17.5195L18.7979 16ZM21.5512 16V0.477539H24.7738V16H21.5512ZM41.6028 7.80371C43.5507 8.34082 44.5246 9.62272 44.5246 11.6494C44.5246 12.9958 44.1129 14.0592 43.2893 14.8398C42.4657 15.6133 41.2554 16 39.6584 16H33.2668V0.477539H38.2942C39.9485 0.477539 41.2125 0.853516 42.0862 1.60547C42.967 2.35026 43.4074 3.39225 43.4074 4.73145C43.4074 5.42611 43.2535 6.04199 42.9455 6.5791C42.6448 7.10905 42.1972 7.51725 41.6028 7.80371ZM38.3264 3.15234H36.3713V6.80469H38.466C39.1249 6.80469 39.619 6.63281 39.9485 6.28906C40.2779 5.94531 40.4426 5.49414 40.4426 4.93555C40.4426 4.39844 40.2636 3.96875 39.9055 3.64648C39.5474 3.31706 39.0211 3.15234 38.3264 3.15234ZM39.0569 13.2393C39.8661 13.2393 40.4569 13.0566 40.8293 12.6914C41.2089 12.3262 41.3987 11.8607 41.3987 11.2949C41.3987 10.7148 41.2089 10.235 40.8293 9.85547C40.4498 9.47591 39.8375 9.28613 38.9924 9.28613H36.3713V13.2393H39.0569ZM52.5309 16.2148C51.6644 16.2148 50.8659 16.1038 50.1354 15.8818C49.4121 15.6527 48.7747 15.3125 48.2233 14.8613C47.6718 14.4102 47.2386 13.8193 46.9235 13.0889C46.6155 12.3584 46.4616 11.5169 46.4616 10.5645V0.477539H49.6842V10.124C49.6842 11.2412 49.942 12.0612 50.4576 12.584C50.9804 13.1068 51.6715 13.3682 52.5309 13.3682C53.3903 13.3682 54.0813 13.1068 54.6041 12.584C55.1341 12.054 55.3991 11.234 55.3991 10.124V0.477539H58.6217V10.5645C58.6217 11.5169 58.4642 12.3584 58.1491 13.0889C57.8411 13.8193 57.4078 14.4102 56.8493 14.8613C56.2978 15.3125 55.6569 15.6527 54.9264 15.8818C54.2031 16.1038 53.4046 16.2148 52.5309 16.2148ZM66.8536 16.2148C65.1491 16.2148 63.7133 15.821 62.5459 15.0332C61.3786 14.2383 60.6804 13.1283 60.4512 11.7031L63.7813 10.9404C63.8887 11.7926 64.2289 12.4479 64.8018 12.9062C65.3819 13.3574 66.1088 13.583 66.9825 13.583C67.6771 13.583 68.2429 13.4255 68.6797 13.1104C69.1166 12.7881 69.3314 12.3154 69.3243 11.6924C69.3243 11.2555 69.1416 10.8724 68.7764 10.543C68.4112 10.2135 68.0459 9.98079 67.6807 9.84473C67.3226 9.7015 66.7426 9.50814 65.9405 9.26465C65.833 9.22884 65.7543 9.20378 65.7041 9.18945C65.2959 9.06055 64.9665 8.95312 64.7159 8.86719C64.4652 8.78125 64.1537 8.66309 63.7813 8.5127C63.4161 8.35514 63.1153 8.20475 62.8789 8.06152C62.6498 7.91113 62.4027 7.72493 62.1377 7.50293C61.8728 7.27376 61.6651 7.03385 61.5147 6.7832C61.3643 6.53255 61.239 6.23535 61.1387 5.8916C61.0385 5.54785 60.9883 5.17904 60.9883 4.78516C60.9883 3.84701 61.2282 3.03418 61.708 2.34668C62.195 1.65202 62.8467 1.13281 63.6631 0.789062C64.4867 0.438151 65.4213 0.262695 66.4668 0.262695C67.1758 0.262695 67.849 0.337891 68.4864 0.488281C69.1309 0.638672 69.736 0.871419 70.3018 1.18652C70.8676 1.49447 71.3474 1.92057 71.7413 2.46484C72.1423 3.00195 72.418 3.62858 72.5684 4.34473L69.4532 5.11816C69.1739 3.63574 68.2429 2.89453 66.6602 2.89453C65.9584 2.89453 65.3819 3.04492 64.9307 3.3457C64.4795 3.64648 64.2539 4.10124 64.2539 4.70996C64.2539 5.27572 64.6299 5.73405 65.3819 6.08496C65.7328 6.25684 66.4525 6.50391 67.5411 6.82617C67.9636 6.95508 68.3073 7.0625 68.5723 7.14844C68.8373 7.23438 69.1703 7.3597 69.5713 7.52441C69.9724 7.68913 70.2982 7.85026 70.5489 8.00781C70.7995 8.1582 71.0717 8.35514 71.3653 8.59863C71.6589 8.84212 71.8881 9.09993 72.0528 9.37207C72.2247 9.64421 72.3679 9.96647 72.4825 10.3389C72.597 10.7041 72.6543 11.1016 72.6543 11.5312C72.6543 12.1758 72.5505 12.7594 72.3428 13.2822C72.1351 13.805 71.8487 14.2454 71.4834 14.6035C71.1254 14.9616 70.6993 15.266 70.2051 15.5166C69.711 15.7601 69.1846 15.9355 68.626 16.043C68.0674 16.1576 67.4766 16.2148 66.8536 16.2148ZM75.021 16V0.477539H78.2436V16H75.021ZM92.244 0.477539H95.4559V16H91.7284L84.8534 4.90332V16H81.6415V0.477539H85.326L92.244 11.5098V0.477539ZM107.856 3.31348H102.098V6.83691H107.2V9.64062H102.098V13.1533H107.856V16H98.8538V0.477539H107.856V3.31348ZM115.722 16.2148C114.018 16.2148 112.582 15.821 111.415 15.0332C110.247 14.2383 109.549 13.1283 109.32 11.7031L112.65 10.9404C112.757 11.7926 113.098 12.4479 113.671 12.9062C114.251 13.3574 114.978 13.583 115.851 13.583C116.546 13.583 117.112 13.4255 117.549 13.1104C117.985 12.7881 118.2 12.3154 118.193 11.6924C118.193 11.2555 118.01 10.8724 117.645 10.543C117.28 10.2135 116.915 9.98079 116.549 9.84473C116.191 9.7015 115.611 9.50814 114.809 9.26465C114.702 9.22884 114.623 9.20378 114.573 9.18945C114.165 9.06055 113.835 8.95312 113.585 8.86719C113.334 8.78125 113.022 8.66309 112.65 8.5127C112.285 8.35514 111.984 8.20475 111.748 8.06152C111.519 7.91113 111.271 7.72493 111.007 7.50293C110.742 7.27376 110.534 7.03385 110.383 6.7832C110.233 6.53255 110.108 6.23535 110.007 5.8916C109.907 5.54785 109.857 5.17904 109.857 4.78516C109.857 3.84701 110.097 3.03418 110.577 2.34668C111.064 1.65202 111.716 1.13281 112.532 0.789062C113.355 0.438151 114.29 0.262695 115.336 0.262695C116.045 0.262695 116.718 0.337891 117.355 0.488281C118 0.638672 118.605 0.871419 119.171 1.18652C119.736 1.49447 120.216 1.92057 120.61 2.46484C121.011 3.00195 121.287 3.62858 121.437 4.34473L118.322 5.11816C118.043 3.63574 117.112 2.89453 115.529 2.89453C114.827 2.89453 114.251 3.04492 113.799 3.3457C113.348 3.64648 113.123 4.10124 113.123 4.70996C113.123 5.27572 113.499 5.73405 114.251 6.08496C114.602 6.25684 115.321 6.50391 116.41 6.82617C116.832 6.95508 117.176 7.0625 117.441 7.14844C117.706 7.23438 118.039 7.3597 118.44 7.52441C118.841 7.68913 119.167 7.85026 119.418 8.00781C119.668 8.1582 119.94 8.35514 120.234 8.59863C120.528 8.84212 120.757 9.09993 120.922 9.37207C121.093 9.64421 121.237 9.96647 121.351 10.3389C121.466 10.7041 121.523 11.1016 121.523 11.5312C121.523 12.1758 121.419 12.7594 121.212 13.2822C121.004 13.805 120.717 14.2454 120.352 14.6035C119.994 14.9616 119.568 15.266 119.074 15.5166C118.58 15.7601 118.053 15.9355 117.495 16.043C116.936 16.1576 116.345 16.2148 115.722 16.2148ZM128.917 16.2148C127.213 16.2148 125.777 15.821 124.609 15.0332C123.442 14.2383 122.744 13.1283 122.515 11.7031L125.845 10.9404C125.952 11.7926 126.292 12.4479 126.865 12.9062C127.445 13.3574 128.172 13.583 129.046 13.583C129.741 13.583 130.306 13.4255 130.743 13.1104C131.18 12.7881 131.395 12.3154 131.388 11.6924C131.388 11.2555 131.205 10.8724 130.84 10.543C130.475 10.2135 130.109 9.98079 129.744 9.84473C129.386 9.7015 128.806 9.50814 128.004 9.26465C127.897 9.22884 127.818 9.20378 127.768 9.18945C127.359 9.06055 127.03 8.95312 126.779 8.86719C126.529 8.78125 126.217 8.66309 125.845 8.5127C125.48 8.35514 125.179 8.20475 124.942 8.06152C124.713 7.91113 124.466 7.72493 124.201 7.50293C123.936 7.27376 123.729 7.03385 123.578 6.7832C123.428 6.53255 123.302 6.23535 123.202 5.8916C123.102 5.54785 123.052 5.17904 123.052 4.78516C123.052 3.84701 123.292 3.03418 123.772 2.34668C124.259 1.65202 124.91 1.13281 125.727 0.789062C126.55 0.438151 127.485 0.262695 128.53 0.262695C129.239 0.262695 129.913 0.337891 130.55 0.488281C131.194 0.638672 131.8 0.871419 132.365 1.18652C132.931 1.49447 133.411 1.92057 133.805 2.46484C134.206 3.00195 134.482 3.62858 134.632 4.34473L131.517 5.11816C131.237 3.63574 130.306 2.89453 128.724 2.89453C128.022 2.89453 127.445 3.04492 126.994 3.3457C126.543 3.64648 126.317 4.10124 126.317 4.70996C126.317 5.27572 126.693 5.73405 127.445 6.08496C127.796 6.25684 128.516 6.50391 129.605 6.82617C130.027 6.95508 130.371 7.0625 130.636 7.14844C130.901 7.23438 131.234 7.3597 131.635 7.52441C132.036 7.68913 132.362 7.85026 132.612 8.00781C132.863 8.1582 133.135 8.35514 133.429 8.59863C133.722 8.84212 133.952 9.09993 134.116 9.37207C134.288 9.64421 134.431 9.96647 134.546 10.3389C134.661 10.7041 134.718 11.1016 134.718 11.5312C134.718 12.1758 134.614 12.7594 134.406 13.2822C134.199 13.805 133.912 14.2454 133.547 14.6035C133.189 14.9616 132.763 15.266 132.269 15.5166C131.774 15.7601 131.248 15.9355 130.69 16.043C130.131 16.1576 129.54 16.2148 128.917 16.2148Z" fill="#0F1120"/>
</svg>
