<svg width="142" height="158" viewBox="0 0 142 158" fill="none" xmlns="http://www.w3.org/2000/svg">
<ellipse cx="71.4022" cy="79.8041" rx="14.4828" ry="14.4742" stroke="#3F3F3F" stroke-width="1.60825" stroke-linecap="round" stroke-linejoin="round"/>
<path d="M128.849 46.031L84.6782 71.12" stroke="#3F3F3F" stroke-width="1.60825" stroke-linecap="round" stroke-linejoin="round"/>
<path d="M13.8735 46.031L58.0442 71.12" stroke="#3F3F3F" stroke-width="1.60825" stroke-linecap="round" stroke-linejoin="round"/>
<path fill-rule="evenodd" clip-rule="evenodd" d="M70.8458 5.82471L134.255 42.4123V115.588L70.8458 152.175L7.43677 115.588V42.4123L70.8458 5.82471Z" stroke="#3F3F3F" stroke-width="1.60825" stroke-linecap="round" stroke-linejoin="round"/>
<ellipse cx="71.8046" cy="7.4329" rx="4.82759" ry="4.82474" fill="#C2C2C2"/>
<ellipse cx="71.8045" cy="7.43301" rx="3.62069" ry="3.61856" stroke="#151515" stroke-width="2.41237"/>
<ellipse cx="71.8046" cy="7.4329" rx="4.82759" ry="4.82474" stroke="#151515" stroke-width="1.60825"/>
<ellipse cx="71.8046" cy="150.567" rx="4.82759" ry="4.82474" fill="#C2C2C2"/>
<ellipse cx="71.8045" cy="150.567" rx="3.62069" ry="3.61856" stroke="#151515" stroke-width="2.41237"/>
<ellipse cx="71.8046" cy="150.567" rx="4.82759" ry="4.82474" stroke="#151515" stroke-width="1.60825"/>
<ellipse cx="134.563" cy="42.8145" rx="4.82759" ry="4.82474" fill="#C2C2C2"/>
<ellipse cx="134.563" cy="42.8146" rx="3.62069" ry="3.61856" stroke="#151515" stroke-width="2.41237"/>
<ellipse cx="134.563" cy="42.8145" rx="4.82759" ry="4.82474" stroke="#151515" stroke-width="1.60825"/>
<ellipse cx="7.43672" cy="42.8145" rx="4.82759" ry="4.82474" fill="#C2C2C2"/>
<ellipse cx="7.43661" cy="42.8146" rx="3.62069" ry="3.61856" stroke="#151515" stroke-width="2.41237"/>
<ellipse cx="7.43672" cy="42.8145" rx="4.82759" ry="4.82474" stroke="#151515" stroke-width="1.60825"/>
<ellipse cx="134.563" cy="113.577" rx="4.82759" ry="4.82474" fill="#C2C2C2"/>
<ellipse cx="134.563" cy="113.578" rx="3.62069" ry="3.61856" stroke="#151515" stroke-width="2.41237"/>
<ellipse cx="134.563" cy="113.577" rx="4.82759" ry="4.82474" stroke="#151515" stroke-width="1.60825"/>
<ellipse cx="7.43672" cy="113.577" rx="4.82759" ry="4.82474" fill="#C2C2C2"/>
<ellipse cx="7.43661" cy="113.578" rx="3.62069" ry="3.61856" stroke="#151515" stroke-width="2.41237"/>
<ellipse cx="7.43672" cy="113.577" rx="4.82759" ry="4.82474" stroke="#151515" stroke-width="1.60825"/>
<ellipse cx="71.8047" cy="7.43299" rx="6.43678" ry="6.43299" stroke="#3F3F3F" stroke-width="1.60825" stroke-linecap="round" stroke-linejoin="round"/>
<ellipse cx="71.8047" cy="150.567" rx="6.43678" ry="6.43299" stroke="#3F3F3F" stroke-width="1.60825" stroke-linecap="round" stroke-linejoin="round"/>
<ellipse cx="134.563" cy="42.8143" rx="6.43678" ry="6.43299" stroke="#3F3F3F" stroke-width="1.60825" stroke-linecap="round" stroke-linejoin="round"/>
<ellipse cx="7.43678" cy="42.8143" rx="6.43678" ry="6.43299" stroke="#3F3F3F" stroke-width="1.60825" stroke-linecap="round" stroke-linejoin="round"/>
<ellipse cx="134.563" cy="113.577" rx="6.43678" ry="6.43299" stroke="#3F3F3F" stroke-width="1.60825" stroke-linecap="round" stroke-linejoin="round"/>
<ellipse cx="7.43678" cy="113.577" rx="6.43678" ry="6.43299" stroke="#3F3F3F" stroke-width="1.60825" stroke-linecap="round" stroke-linejoin="round"/>
<path d="M71.8047 95.0825V143.357" stroke="#3F3F3F" stroke-width="1.60825" stroke-linecap="round" stroke-linejoin="round"/>
</svg>
