<svg width="152" height="155" viewBox="0 0 152 155" fill="none" xmlns="http://www.w3.org/2000/svg">
<path d="M76.1057 48.22C41.1477 48.22 20.8009 48.22 15.0654 48.22C6.46208 48.22 1 53.8831 1 61.9891C1 70.0951 1 129.854 1 138.486C1 147.117 4.23276 153.414 15.0654 153.414C22.2871 153.414 42.649 153.414 76.151 153.414" stroke="#3F3F3F" stroke-width="2" stroke-linecap="round" stroke-linejoin="round"/>
<path d="M76.0537 61.5752C38.7599 61.5752 19.4027 61.5752 17.9822 61.5752C15.8515 61.5752 14.0974 63.4042 14.0974 65.3065C14.0974 67.2089 14.0974 134.243 14.0974 136.184C14.0974 138.124 15.4868 140.28 18.3233 140.28C20.2144 140.28 39.4656 140.28 76.0772 140.28" stroke="#3F3F3F" stroke-width="2" stroke-linecap="round" stroke-linejoin="round"/>
<path d="M75.7077 48.22C110.666 48.22 131.013 48.22 136.748 48.22C145.351 48.22 150.813 53.8831 150.813 61.9891C150.813 70.0951 150.813 129.854 150.813 138.486C150.813 147.117 147.581 153.414 136.748 153.414C129.526 153.414 109.164 153.414 75.6625 153.414" stroke="#3F3F3F" stroke-width="2" stroke-linecap="round" stroke-linejoin="round"/>
<path d="M75.7597 61.5752C113.054 61.5752 132.411 61.5752 133.831 61.5752C135.962 61.5752 137.716 63.4042 137.716 65.3065C137.716 67.2089 137.716 134.243 137.716 136.184C137.716 138.124 136.327 140.28 133.49 140.28C131.599 140.28 112.348 140.28 75.7363 140.28" stroke="#3F3F3F" stroke-width="2" stroke-linecap="round" stroke-linejoin="round"/>
<path d="M49.7596 21.5867L76.0564 48.0933" stroke="#3F3F3F" stroke-width="2" stroke-linecap="round" stroke-linejoin="round"/>
<path d="M116.621 7.88574L76.0564 48.0933" stroke="#3F3F3F" stroke-width="2" stroke-linecap="round" stroke-linejoin="round"/>
<path d="M23.7925 85.0805C28.1297 85.0805 28.4456 77.9143 35.3725 77.9143C42.2994 77.9143 42.3446 85.1033 48.2952 85.1033C54.2458 85.1033 54.5187 77.9143 61.4447 77.9143C68.3707 77.9143 67.8178 85.1033 74.4269 85.1033C81.036 85.1033 81.0527 78.4399 87.2917 78.4399C93.5308 78.4399 93.5976 85.1033 100.418 85.1033C107.238 85.1033 106.664 78.4399 113.273 78.4399C119.883 78.4399 119.463 85.1033 124.884 85.1033" stroke="#3F3F3F" stroke-width="2" stroke-linecap="round" stroke-linejoin="round"/>
<path d="M23.7925 104.623C28.1297 104.623 28.4456 97.457 35.3725 97.457C42.2994 97.457 42.3446 104.646 48.2952 104.646C54.2458 104.646 54.5187 97.457 61.4447 97.457C68.3707 97.457 67.8178 104.646 74.4269 104.646C81.036 104.646 81.0527 97.9826 87.2917 97.9826C93.5308 97.9826 93.5976 104.646 100.418 104.646C107.238 104.646 106.664 97.9826 113.273 97.9826C119.883 97.9826 119.463 104.646 124.884 104.646" stroke="#3F3F3F" stroke-width="2" stroke-linecap="round" stroke-linejoin="round"/>
<path d="M23.7925 124.166C28.1297 124.166 28.4456 117 35.3725 117C42.2994 117 42.3446 124.189 48.2952 124.189C54.2458 124.189 54.5187 117 61.4447 117C68.3707 117 67.8178 124.189 74.4269 124.189C81.036 124.189 81.0527 117.526 87.2917 117.526C93.5308 117.526 93.5976 124.189 100.418 124.189C107.238 124.189 106.664 117.526 113.273 117.526C119.883 117.526 119.463 124.189 124.884 124.189" stroke="#3F3F3F" stroke-width="2" stroke-linecap="round" stroke-linejoin="round"/>
<circle cx="48.1945" cy="19" r="6" transform="rotate(-90 48.1945 19)" fill="#C2C2C2"/>
<circle cx="48.1945" cy="19" r="4.5" transform="rotate(-90 48.1945 19)" stroke="#151515" stroke-width="3"/>
<circle cx="48.1945" cy="19" r="6" transform="rotate(-90 48.1945 19)" stroke="#151515" stroke-width="2"/>
<circle cx="118.194" cy="7" r="6" transform="rotate(-90 118.194 7)" fill="#C2C2C2"/>
<circle cx="118.194" cy="7" r="4.5" transform="rotate(-90 118.194 7)" stroke="#151515" stroke-width="3"/>
<circle cx="118.194" cy="7" r="6" transform="rotate(-90 118.194 7)" stroke="#151515" stroke-width="2"/>
</svg>
