<svg width="135" height="16" viewBox="0 0 135 16" fill="none" xmlns="http://www.w3.org/2000/svg">
<path fill-rule="evenodd" clip-rule="evenodd" d="M18.4336 15.7373H15.2217L14.2012 4.03906L10.2695 15.7373H8.18555L4.25391 4.03906L3.22266 15.7373H0L1.2998 0.214844H5.89746L9.20605 9.95801L12.5576 0.214844H17.1553L18.4336 15.7373ZM21.1869 15.7373V0.214844H24.4096V15.7373H21.1869ZM41.8615 7.54102C43.6125 8.02441 44.7834 9.17383 44.7834 11.3867C44.7834 14.0078 43.1936 15.7373 39.9172 15.7373H33.5256V0.214844H38.553C41.9045 0.214844 43.6662 1.82617 43.6662 4.46875C43.6662 5.83301 43.0754 6.9502 41.8615 7.54102ZM38.5852 2.88965H36.6301V6.54199H38.7248C40.0998 6.54199 40.7014 5.72559 40.7014 4.67285C40.7014 3.6416 40.0246 2.88965 38.5852 2.88965ZM39.3157 12.9766C41.0559 12.9766 41.6574 12.042 41.6574 11.0322C41.6574 10.001 41.0666 9.02344 39.2512 9.02344H36.6301V12.9766H39.3157ZM52.7789 15.9521C49.3737 15.9521 46.7096 14.2119 46.7096 10.3018V0.214844H49.9323V9.86133C49.9323 12.2246 51.1891 13.1055 52.7789 13.1055C54.3795 13.1055 55.6471 12.2139 55.6471 9.86133V0.214844H58.8698V10.3018C58.8698 14.2119 56.195 15.9521 52.7789 15.9521ZM67.1016 15.9521C63.7715 15.9521 61.1719 14.3516 60.6993 11.4404L64.0293 10.6777C64.2442 12.418 65.5225 13.3203 67.2305 13.3203C68.5411 13.3203 69.5831 12.7402 69.5723 11.4297C69.5616 9.96875 67.8428 9.50684 65.9522 8.92676C63.6748 8.21777 61.2364 7.37988 61.2364 4.52246C61.2364 1.63281 63.5997 0 66.7149 0C69.4434 0 72.1934 1.10645 72.8165 4.08203L69.7012 4.85547C69.4112 3.30859 68.3692 2.63184 66.9082 2.63184C65.6084 2.63184 64.502 3.16895 64.502 4.44727C64.502 5.63965 66.0274 6.03711 67.7891 6.56348C70.1309 7.27246 72.9024 8.1748 72.9024 11.2686C72.9024 14.5664 70.1416 15.9521 67.1016 15.9521ZM75.2583 15.7373V0.214844H78.4809V15.7373H75.2583ZM92.4706 0.214844H95.6825V15.7373H91.9549L85.0799 4.64062V15.7373H81.868V0.214844H85.5526L92.4706 11.2471V0.214844ZM108.082 3.05078H102.324V6.57422H107.427V9.37793H102.324V12.8906H108.082V15.7373H99.0803V0.214844H108.082V3.05078ZM115.938 15.9521C112.608 15.9521 110.008 14.3516 109.536 11.4404L112.866 10.6777C113.081 12.418 114.359 13.3203 116.067 13.3203C117.378 13.3203 118.42 12.7402 118.409 11.4297C118.398 9.96875 116.679 9.50684 114.789 8.92676C112.511 8.21777 110.073 7.37988 110.073 4.52246C110.073 1.63281 112.436 0 115.551 0C118.28 0 121.03 1.10645 121.653 4.08203L118.538 4.85547C118.248 3.30859 117.206 2.63184 115.745 2.63184C114.445 2.63184 113.339 3.16895 113.339 4.44727C113.339 5.63965 114.864 6.03711 116.626 6.56348C118.967 7.27246 121.739 8.1748 121.739 11.2686C121.739 14.5664 118.978 15.9521 115.938 15.9521ZM129.122 15.9521C125.792 15.9521 123.192 14.3516 122.72 11.4404L126.05 10.6777C126.265 12.418 127.543 13.3203 129.251 13.3203C130.562 13.3203 131.604 12.7402 131.593 11.4297C131.582 9.96875 129.863 9.50684 127.973 8.92676C125.695 8.21777 123.257 7.37988 123.257 4.52246C123.257 1.63281 125.62 0 128.735 0C131.464 0 134.214 1.10645 134.837 4.08203L131.722 4.85547C131.432 3.30859 130.39 2.63184 128.929 2.63184C127.629 2.63184 126.523 3.16895 126.523 4.44727C126.523 5.63965 128.048 6.03711 129.81 6.56348C132.151 7.27246 134.923 8.1748 134.923 11.2686C134.923 14.5664 132.162 15.9521 129.122 15.9521Z" fill="white"/>
</svg>
